PathFileType	4	(X/Y/Z)	E:\Qualisys_Data\Carbon_Farble_Plate\Data\Amateur_Runner\S2\T3\S2T3V11_c3d.trc
DataRate	CameraRate	NumFrames	NumMarkers	Units	OrigDataRate	OrigDataStartFrame	OrigNumFrames
200.000000	200.000000	4	39	mm	200.000000	81	324
Frame#	Time	LSHO			RSHO			LICST			RICST			LASIS			LHEEL			RASIS			LTROC			RTROC			SACR			LTH1			LSK4			LTH2			LTH3			RHM5			LSK2			LTH4			RTH1			LTOE			RTH2			RTH3			RTH4			LLEP			RLEP			LSK1			LSK3			RSK1			LHM5			RSK2			LFT1			RSK3			RSK4			LLME			RLME			RTOE			RHEEL			RFT1			RFT2			LFT2			
		X1	Y1	Z1	X2	Y2	Z2	X3	Y3	Z3	X4	Y4	Z4	X5	Y5	Z5	X6	Y6	Z6	X7	Y7	Z7	X8	Y8	Z8	X9	Y9	Z9	X10	Y10	Z10	X11	Y11	Z11	X12	Y12	Z12	X13	Y13	Z13	X14	Y14	Z14	X15	Y15	Z15	X16	Y16	Z16	X17	Y17	Z17	X18	Y18	Z18	X19	Y19	Z19	X20	Y20	Z20	X21	Y21	Z21	X22	Y22	Z22	X23	Y23	Z23	X24	Y24	Z24	X25	Y25	Z25	X26	Y26	Z26	X27	Y27	Z27	X28	Y28	Z28	X29	Y29	Z29	X30	Y30	Z30	X31	Y31	Z31	X32	Y32	Z32	X33	Y33	Z33	X34	Y34	Z34	X35	Y35	Z35	X36	Y36	Z36	X37	Y37	Z37	X38	Y38	Z38	X39	Y39	Z39	

82	0.405	-1313.6484375	1516.976806640625	-496.3177490234375	-1226.954345703125	1490.58740234375	-204.6049652099609	-1317.028198242188	1048.016357421875	-483.6178894042969	-1278.766357421875	1039.965942382812	-188.4356994628906	-1257.85986328125	999.7642822265624	-467.9939880371094	-1193.245971679688	107.3218688964844	-370.6307983398438	-1227.250366210938	987.90283203125	-212.6289825439453	-1379.791748046875	921.4197998046876	-484.60302734375	-1386.072509765625	958.741943359375	-169.8786926269531	-1395.426147460938	1087.1953125	-322.4103088378906	-1201.975830078125	697.9321899414062	-501.8927612304688	-1222.923828125	312.7250366210938	-463.4560852050781	-1284.32177734375	676.5575561523438	-495.3007202148438	-1174.461181640625	601.6254272460938	-476.8666076660156	-1827.294799804688	202.4546356201172	-179.9869232177734	-1234.420288085938	410.0551452636719	-478.5832824707031	-1256.428588867188	581.8758544921875	-469.6148681640625	-1350.557495117188	673.2847900390625	-174.2745513916016	-965.8868408203124	188.1531372070312	-438.1935119628906	-1421.360961914062	703.8279418945312	-168.7588806152344	-1389.037353515625	581.1167602539062	-183.787353515625	-1461.90380859375	615.2092895507812	-184.1925506591797	-1204.653442382812	548.14794921875	-469.7335815429688	-1456.337280273438	573.3417358398438	-178.2176666259766	-1157.0390625	420.1009216308594	-476.2553100585938	-1144.172241210938	321.3238220214844	-465.4502258300781	-1533.586791992188	475.2143249511719	-166.8810882568359	-1024.241455078125	139.1493225097656	-481.7881164550781	-1579.519409179688	540.5938110351562	-166.3943023681641	-1168.652954101562	87.79955291748047	-345.0998229980469	-1617.533203125	415.8462524414062	-172.2555847167969	-1660.100219726562	482.3824157714844	-176.8855133056641	-1148.794677734375	139.0675354003906	-434.1494750976562	-1793.284057617188	338.0042114257812	-198.6981658935547	-1791.935424804688	140.3942718505859	-229.4126739501953	-1808.93408203125	391.4234619140625	-262.2652282714844	-1824.387451171875	372.4822387695312	-296.0604858398438	-1838.584716796875	388.8235778808594	-248.5823669433594	-1182.89208984375	74.6507797241211	-393.8013916015625
83	0.41	-1298.39990234375	1514.498779296875	-497.78369140625	-1211.973022460938	1488.71630859375	-205.4863128662109	-1302.688720703125	1045.658935546875	-484.3777465820312	-1263.208374023438	1038.28857421875	-188.3694763183594	-1242.37060546875	997.5403442382812	-467.9738159179688	-1176.917846679688	105.4901275634766	-369.2683715820312	-1211.582641601562	986.4757080078124	-212.8406524658203	-1364.41650390625	918.7708740234376	-484.1187438964844	-1369.849731445312	955.5739135742188	-170.3516693115234	-1380.073608398438	1084.598510742188	-322.624755859375	-1185.728881835938	694.4243774414062	-503.8811645507812	-1206.830810546875	310.5616760253906	-463.4195251464844	-1269.004516601562	673.2216186523438	-497.283203125	-1158.244384765625	598.2794799804688	-478.0289916992188	-1817.241943359375	210.4480285644531	-180.2933959960938	-1217.815185546875	407.7888793945312	-478.221923828125	-1240.412353515625	578.712646484375	-470.1810302734375	-1331.057006835938	670.0057983398438	-174.7691345214844	-950.4168701171876	187.3823394775391	-437.3783874511719	-1402.583374023438	700.051513671875	-168.5618591308594	-1368.71826171875	577.6184692382812	-183.7797546386719	-1442.42236328125	610.8330688476562	-184.1531066894531	-1188.743286132812	545.9385986328125	-469.619140625	-1436.473999023438	569.6836547851562	-177.8977508544922	-1140.3916015625	418.1127319335938	-475.5241088867188	-1127.155639648438	319.4137878417969	-464.2975769042969	-1516.142211914062	473.3942565917969	-167.6645812988281	-1008.2001953125	137.7864685058594	-480.8070068359375	-1560.1044921875	540.0741577148438	-166.6555328369141	-1151.93798828125	86.13359832763672	-343.2406311035156	-1601.632446289062	416.9755249023438	-172.3784484863281	-1642.20849609375	484.77001953125	-177.5991821289062	-1133.481323242188	137.0990600585938	-433.0163269042969	-1778.39013671875	345.3572692871094	-199.2326965332031	-1781.685791015625	146.66552734375	-229.4074859619141	-1794.874755859375	397.719482421875	-263.0767822265625	-1810.326049804688	379.5913696289062	-296.6951293945312	-1824.54736328125	396.2201843261719	-249.1360778808594	-1166.08203125	72.95024871826172	-391.9408874511719
84	0.415	-1283.162353515625	1511.067504882812	-499.2014465332031	-1196.442504882812	1486.460327148438	-206.3844299316406	-1287.168090820312	1042.864501953125	-484.4642639160156	-1248.5361328125	1036.636108398438	-188.7169494628906	-1227.4189453125	995.0616455078124	-468.4691467285156	-1162.02001953125	102.974494934082	-368.1015319824219	-1196.014282226562	984.4254760742188	-213.0234985351562	-1349.109375	916.3055419921876	-484.195068359375	-1353.857543945312	952.2243041992188	-170.6295623779297	-1364.59375	1081.930053710938	-322.4719543457031	-1169.728881835938	691.2371826171875	-505.6603393554688	-1190.536987304688	308.5935363769531	-462.5316772460938	-1253.240112304688	669.5118408203125	-499.2564697265625	-1142.239379882812	595.5309448242188	-478.6078796386719	-1805.641357421875	217.3977508544922	-180.8070373535156	-1201.7734375	405.6036987304688	-478.1766662597656	-1224.076416015625	575.67578125	-470.9013671875	-1311.8173828125	667.2208251953125	-174.798828125	-935.9505004882812	185.8250732421875	-436.0933532714844	-1383.585205078125	695.8531494140625	-168.4878540039062	-1349.054077148438	574.0361328125	-183.7710113525391	-1422.770263671875	606.4813232421875	-184.0037231445312	-1172.006225585938	543.4575805664062	-469.0533447265625	-1416.358154296875	565.4259033203125	-178.3242797851562	-1123.293334960938	415.7047119140625	-474.5874633789062	-1111.729370117188	317.0267944335938	-462.98583984375	-1498.03564453125	470.8867492675781	-167.9666900634766	-992.9976196289062	135.1257171630859	-479.1871643066406	-1539.587524414062	539.3850708007812	-166.5872039794922	-1136.780029296875	84.61870574951172	-341.5928649902344	-1585.19482421875	417.7160034179688	-173.1700592041016	-1623.231811523438	486.5470581054688	-177.3553771972656	-1118.149291992188	134.6691741943359	-431.7624206542969	-1765.537475585938	350.9618835449219	-201.5896301269531	-1771.043090820312	154.1395568847656	-229.2699737548828	-1779.468505859375	403.9558410644531	-263.4845581054688	-1796.85546875	387.0718688964844	-298.0571899414062	-1808.483276367188	403.1874389648438	-248.9097290039062	-1150.843017578125	70.48817443847656	-390.5621643066406
85	0.42	-1268.103393554688	1507.84619140625	-500.2074890136719	-1181.12255859375	1484.09228515625	-207.4856262207031	-1271.758911132812	1040.128662109375	-484.4959106445312	-1233.320434570312	1033.37744140625	-188.804443359375	-1211.544921875	992.7098999023438	-468.4801635742188	-1148.096435546875	100.741828918457	-366.9081726074219	-1180.557006835938	982.2832641601562	-213.0940856933594	-1333.6162109375	913.3532104492188	-484.3407897949219	-1337.89892578125	948.7588500976562	-171.52197265625	-1349.28759765625	1079.215942382812	-322.8858032226562	-1153.425659179688	688.1563110351562	-506.2677612304688	-1175.858520507812	306.2102966308594	-461.5360717773438	-1235.644165039062	665.627685546875	-500.6340637207031	-1125.402099609375	593.4473266601562	-477.7572021484375	-1794.14990234375	225.1200866699219	-181.81494140625	-1185.803466796875	403.8315734863281	-477.7712097167969	-1207.374877929688	572.4891357421875	-470.9432373046875	-1293.233032226562	663.6666259765625	-175.670166015625	-921.8679809570312	183.7040405273438	-434.2964172363281	-1365.2998046875	691.5020751953125	-168.7010498046875	-1328.53662109375	569.8496704101562	-183.8269500732422	-1403.167236328125	601.4736328125	-184.2432708740234	-1154.897827148438	541.610595703125	-468.9204711914062	-1396.072143554688	560.5669555664062	-178.1313323974609	-1107.549682617188	413.0453186035156	-474.017333984375	-1096.332641601562	314.1119995117188	-462.0378723144531	-1479.145874023438	468.6652221679688	-168.3969268798828	-978.6726684570312	132.8123474121094	-477.5960388183594	-1518.704345703125	538.1767578125	-166.2579345703125	-1123.387329101562	82.20620727539062	-340.7967834472656	-1568.192260742188	418.1449890136719	-173.9131469726562	-1603.729125976562	488.1118774414062	-177.7472686767578	-1104.362182617188	131.97998046875	-430.910400390625	-1749.401977539062	357.3849182128906	-201.7300567626953	-1760.19091796875	160.30810546875	-229.3090667724609	-1763.906127929688	410.95068359375	-264.3917846679688	-1781.145263671875	394.1469421386719	-298.5143737792969	-1792.554443359375	410.770263671875	-249.68603515625	-1136.720825195312	67.65354919433594	-389.2170104980469
